<?xml version="1.0" standalone="no"?>
<!DOCTYPE svg PUBLIC "-//W3C//DTD SVG 20010904//EN"
 "http://www.w3.org/TR/2001/REC-SVG-20010904/DTD/svg10.dtd">
<svg version="1.0" xmlns="http://www.w3.org/2000/svg"
 width="260.000000pt" height="260.000000pt" viewBox="0 0 260.000000 260.000000"
 preserveAspectRatio="xMidYMid meet">
<metadata>
Created by potrace 1.11, written by Peter Selinger 2001-2013
</metadata>
<g transform="translate(0.000000,260.000000) scale(0.100000,-0.100000)"
fill="#000000" stroke="none">
<path d="M174 2101 c-44 -8 -43 3 -44 -797 0 -725 1 -762 18 -777 16 -14 43
-17 163 -17 103 0 150 4 163 13 16 12 18 35 18 274 0 192 3 263 11 266 22 7
168 0 176 -9 4 -5 54 -119 111 -254 61 -145 113 -254 127 -267 23 -22 32 -23
183 -23 217 0 212 -10 103 225 -36 77 -83 178 -105 225 -91 194 -88 186 -60
195 33 10 118 102 149 162 44 84 58 145 58 258 0 124 -9 172 -45 251 -51 114
-132 190 -250 235 -57 22 -65 24 -140 35 -49 6 -604 11 -636 5z m613 -344 c84
-44 115 -183 61 -279 -36 -65 -67 -76 -223 -77 l-134 -2 0 183 c1 101 5 186
10 189 5 3 64 5 132 4 91 -2 130 -6 154 -18z"/>
<path d="M1520 2102 c-14 -2 -31 -11 -37 -20 -10 -12 -13 -183 -13 -777 0
-725 1 -763 18 -778 17 -15 65 -17 478 -17 373 0 464 3 479 14 16 12 19 29 20
147 1 142 -6 185 -33 193 -10 2 -111 5 -227 5 -115 0 -246 1 -290 1 l-80 0 2
577 c1 318 0 593 -3 610 -4 25 -11 34 -30 39 -27 7 -242 11 -284 6z"/>
</g>
</svg>
